<svg width="252" height="191" viewBox="0 0 252 191" fill="none" xmlns="http://www.w3.org/2000/svg">
<path d="M220.739 95.32C220.739 147.695 178.279 190.153 125.905 190.153C73.5307 190.153 31.072 147.695 31.072 95.32C31.072 42.9453 73.5307 0.486665 125.905 0.486665C178.279 0.486665 220.739 42.9453 220.739 95.32Z" fill="#17322C"/>
<path d="M126.812 78.688C126.812 78.688 102.007 30.5907 30.012 21.8174L12.7693 54.7894L115.015 85.3427L126.812 78.688Z" fill="#FAF3E5"/>
<path d="M82.9493 52.0627C57.6827 38.3867 34.196 36.7893 24.5973 36.7893C23.6467 36.7893 22.8293 36.8053 22.164 36.8267L24.7053 31.9667C63.3347 35.396 82.9493 52.0627 82.9493 52.0627Z" fill="#DBCCAF"/>
<path d="M121.291 81.8027V77.1693L13.94 52.5507L17.44 45.8587L109.504 69.0107C109.504 69.0107 103.28 38.452 30.012 21.8173C94.1853 29.6373 120.865 68.7 125.905 77.096C125.291 78.12 124.997 78.688 124.997 78.688L125.905 79.2L121.291 81.8027Z" fill="#F1E5C8"/>
<path d="M124.997 78.688C124.997 78.688 149.804 30.5907 221.799 21.8174L239.04 54.7894L136.795 85.3427L124.997 78.688Z" fill="#FAF3E5"/>
<path d="M168.861 52.0627C168.861 52.0627 188.476 35.396 227.105 31.9667L229.647 36.8267C228.98 36.8053 228.164 36.7893 227.213 36.7893C217.615 36.7893 194.129 38.3867 168.861 52.0627Z" fill="#DBCCAF"/>
<path d="M237.869 52.5507L234.371 45.8587H234.372L237.871 52.5507H237.869Z" fill="#FAF3E5"/>
<path d="M130.519 81.8027L125.905 79.2L124.997 78.688C124.997 78.688 149.804 30.5907 221.799 21.8173C148.529 38.452 142.307 69.0107 142.307 69.0107L234.372 45.8587L237.869 52.5507L130.519 77.1693V81.8027Z" fill="#F1E5C8"/>
<path d="M220.916 89.0907L130.519 109.404V77.1694L251.212 49.4907L220.916 89.0907Z" fill="#E64C27"/>
<path d="M220.916 89.0907L229.396 78.008H229.397L220.916 89.0907Z" fill="#F5B4A4"/>
<path d="M130.519 109.404V77.1694L150.383 72.6147L143.525 97.3027L229.397 78.008L220.916 89.0907L220.543 89.1747L130.519 109.404Z" fill="#DD3A21"/>
<path d="M30.892 89.0907L121.291 109.404V77.1694L0.597321 49.4907L30.892 89.0907Z" fill="#E64C27"/>
<path d="M121.291 109.404L31.268 89.176L30.892 89.0907L22.4133 78.008L108.283 97.3027L101.427 72.6147L121.291 77.1694V109.404Z" fill="#DD3A21"/>
<path d="M130.519 109.404H121.291L110.78 74.7587H140.955L130.519 109.404Z" fill="#17322C"/>
<mask id="mask0_1_3" style="mask-type:luminance" maskUnits="userSpaceOnUse" x="39" y="8" width="174" height="174">
<path d="M212.505 95.32C212.505 143.148 173.733 181.919 125.905 181.919C78.0786 181.919 39.304 143.148 39.304 95.32C39.304 47.492 78.0786 8.72 125.905 8.72C173.733 8.72 212.505 47.492 212.505 95.32Z" fill="white"/>
</mask>
<g mask="url(#mask0_1_3)">
<path d="M89.844 219.073H161.968V118.565H89.844V219.073Z" fill="#FAF3E5"/>
<path d="M157.764 143.631C148.823 143.631 139.428 137.796 136.807 129.727H115.003C112.38 137.796 102.987 143.631 94.044 143.631C92.6027 143.631 91.1987 143.473 89.844 143.185V118.565H161.968V143.184C160.612 143.472 159.207 143.631 157.764 143.631Z" fill="#F3EBD9"/>
<path d="M159.94 99.8587V99.74H91.8707V99.8587C81.776 100.943 73.9133 109.487 73.9133 119.869C73.9133 130.988 82.9253 140 94.044 140C102.987 140 110.564 134.167 113.188 126.097H138.623C141.244 134.167 148.823 140 157.764 140C168.883 140 177.896 130.988 177.896 119.869C177.896 109.487 170.033 100.943 159.94 99.8587Z" fill="#E2D9C8"/>
<path d="M105.852 121.299C105.145 127.324 100.019 132.009 93.7986 132.007C90.444 132.005 87.4186 130.651 85.2186 128.452C83.02 126.251 81.6653 123.225 81.664 119.869C81.6653 116.515 83.02 113.489 85.2186 111.289C87.4186 109.091 90.444 107.736 93.7986 107.735H158.009C161.367 107.736 164.392 109.091 166.592 111.289C168.791 113.489 170.147 116.515 170.147 119.869C170.147 123.225 168.791 126.251 166.592 128.452C164.392 130.649 161.365 132.005 158.009 132.007C151.792 132.009 146.664 127.324 145.957 121.299C145.871 120.568 145.209 120.044 144.477 120.131C143.747 120.216 143.223 120.879 143.308 121.609C144.172 128.969 150.424 134.671 158.009 134.673C166.188 134.672 172.813 128.045 172.813 119.869C172.813 111.695 166.187 105.069 158.009 105.068H93.7986C85.624 105.069 78.9986 111.695 78.9973 119.869C78.9986 128.045 85.624 134.672 93.7986 134.673C101.387 134.671 107.637 128.969 108.501 121.609C108.587 120.879 108.063 120.216 107.332 120.131C106.6 120.044 105.937 120.568 105.852 121.299Z" fill="#FAF3E5"/>
<path d="M105.775 205.751C105.775 208.148 103.829 210.093 101.429 210.093C99.028 210.093 97.084 208.148 97.084 205.751V148.689C97.084 146.289 99.028 144.344 101.429 144.344C103.829 144.344 105.775 146.289 105.775 148.689V205.751Z" fill="#E2D9C8"/>
<path d="M122.092 205.751C122.092 208.148 120.148 210.093 117.748 210.093C115.348 210.093 113.401 208.148 113.401 205.751V148.689C113.401 146.289 115.348 144.344 117.748 144.344C120.148 144.344 122.092 146.289 122.092 148.689V205.751Z" fill="#E2D9C8"/>
<path d="M138.408 205.751C138.408 208.148 136.465 210.093 134.064 210.093C131.664 210.093 129.719 208.148 129.719 205.751V148.689C129.719 146.289 131.664 144.344 134.064 144.344C136.465 144.344 138.408 146.289 138.408 148.689V205.751Z" fill="#E2D9C8"/>
<path d="M154.727 205.751C154.727 208.148 152.781 210.093 150.383 210.093C147.983 210.093 146.036 208.148 146.036 205.751V148.689C146.036 146.289 147.983 144.344 150.383 144.344C152.781 144.344 154.727 146.289 154.727 148.689V205.751Z" fill="#E2D9C8"/>
<path d="M151.701 178.012V152.621C151.701 150.221 149.755 148.276 147.357 148.276C146.9 148.276 146.469 148.365 146.056 148.497C146.157 146.233 147.975 144.416 150.247 144.345C150.251 144.345 150.255 144.345 150.26 144.345H150.261C150.265 144.345 150.269 144.345 150.273 144.345C150.275 144.345 150.275 144.345 150.276 144.345C150.28 144.345 150.283 144.345 150.287 144.345C150.288 144.345 150.291 144.345 150.292 144.344C150.295 144.344 150.297 144.344 150.3 144.344C150.301 144.344 150.304 144.344 150.307 144.344C150.309 144.344 150.311 144.344 150.313 144.344C150.316 144.344 150.319 144.344 150.321 144.344C150.323 144.344 150.325 144.344 150.328 144.344C150.331 144.344 150.333 144.344 150.336 144.344C150.337 144.344 150.34 144.344 150.341 144.344C150.344 144.344 150.347 144.344 150.349 144.344C150.352 144.344 150.353 144.344 150.355 144.344C150.359 144.344 150.361 144.344 150.364 144.344C150.365 144.344 150.367 144.344 150.369 144.344C150.373 144.344 150.379 144.344 150.383 144.344C152.781 144.344 154.727 146.289 154.727 148.689V177.008C153.727 177.36 152.719 177.695 151.701 178.012Z" fill="#D7CAB6"/>
<path d="M135.383 181.407V152.621C135.383 150.221 133.436 148.276 131.037 148.276C130.581 148.276 130.149 148.365 129.737 148.497C129.837 146.233 131.656 144.416 133.927 144.345C133.928 144.345 133.928 144.345 133.928 144.345C133.932 144.345 133.936 144.345 133.94 144.345C133.941 144.345 133.943 144.345 133.943 144.345C133.947 144.345 133.951 144.345 133.955 144.345C133.955 144.345 133.956 144.345 133.957 144.345C133.96 144.345 133.964 144.345 133.967 144.345C133.969 144.345 133.971 144.345 133.973 144.344C133.976 144.344 133.979 144.344 133.981 144.344C133.983 144.344 133.985 144.344 133.987 144.344C133.989 144.344 133.992 144.344 133.995 144.344C133.997 144.344 134 144.344 134.001 144.344C134.004 144.344 134.007 144.344 134.008 144.344C134.011 144.344 134.013 144.344 134.016 144.344C134.019 144.344 134.02 144.344 134.023 144.344C134.025 144.344 134.028 144.344 134.031 144.344C134.032 144.344 134.035 144.344 134.036 144.344C134.039 144.344 134.043 144.344 134.045 144.344C134.047 144.344 134.048 144.344 134.049 144.344C134.055 144.344 134.059 144.344 134.064 144.344C136.463 144.344 138.408 146.289 138.408 148.689V181.024C137.405 181.168 136.396 181.296 135.383 181.407Z" fill="#D7CAB6"/>
<path d="M122.092 181.837C121.081 181.793 120.069 181.732 119.067 181.653V152.621C119.067 150.221 117.12 148.276 114.723 148.276C114.265 148.276 113.835 148.365 113.421 148.497C113.524 146.188 115.413 144.344 117.748 144.344C118.091 144.344 118.424 144.384 118.743 144.459C120.663 144.908 122.092 146.632 122.092 148.689V181.837Z" fill="#D7CAB6"/>
<path d="M105.775 179.567C104.759 179.325 103.749 179.065 102.748 178.789V152.621C102.748 150.221 100.803 148.276 98.404 148.276C97.9467 148.276 97.516 148.365 97.104 148.497C97.2067 146.188 99.096 144.344 101.429 144.344C102.029 144.344 102.6 144.465 103.12 144.685C104.68 145.345 105.775 146.889 105.775 148.689V179.567Z" fill="#D7CAB6"/>
<path d="M89.8027 119.405C90.0333 117.443 91.7067 115.911 93.7347 115.913C95.92 115.917 97.6893 117.687 97.6933 119.872C97.6893 122.059 95.9213 123.827 93.7347 123.831C92.9987 123.831 92.4013 124.428 92.4013 125.164C92.4013 125.9 92.9987 126.497 93.7347 126.497C97.3947 126.497 100.359 123.532 100.36 119.872C100.359 116.213 97.3947 113.248 93.7347 113.247C90.3387 113.249 87.5413 115.797 87.1546 119.093C87.068 119.825 87.592 120.488 88.3226 120.573C89.0546 120.66 89.7173 120.136 89.8027 119.405Z" fill="#FAF3E5"/>
<path d="M164.435 119.095C164.049 115.797 161.249 113.249 157.853 113.247C154.195 113.248 151.231 116.213 151.229 119.872C151.231 123.532 154.195 126.496 157.853 126.497C158.589 126.497 159.187 125.9 159.187 125.164C159.187 124.428 158.589 123.831 157.853 123.831C155.669 123.827 153.9 122.059 153.896 119.872C153.9 117.687 155.669 115.917 157.853 115.913C159.883 115.911 161.557 117.444 161.787 119.404C161.872 120.136 162.535 120.659 163.265 120.573C163.997 120.488 164.52 119.825 164.435 119.095Z" fill="#FAF3E5"/>
</g>
<path d="M214.557 176.88C194.74 184.688 173.296 177.369 173.296 177.369C173.296 177.369 183.983 157.391 203.8 149.58C223.619 141.772 245.061 149.091 245.061 149.091C245.061 149.091 234.373 169.071 214.557 176.88Z" fill="#E2D9C8"/>
<path d="M194.261 180.481C200.504 180.481 207.507 179.615 214.324 176.972C207.505 179.616 200.505 180.481 194.261 180.481Z" fill="#F6F3ED"/>
<path d="M214.851 176.763C214.867 176.757 214.881 176.751 214.897 176.744C214.883 176.751 214.867 176.757 214.851 176.763ZM214.925 176.733C214.933 176.731 214.944 176.725 214.953 176.723C214.944 176.725 214.935 176.729 214.925 176.733Z" fill="#F6F3ED"/>
<path d="M194.256 180.481C194.253 180.481 194.252 180.481 194.249 180.481C182.483 180.48 173.403 177.407 173.296 177.371C173.296 177.369 173.296 177.369 173.296 177.369C173.296 177.369 183.983 157.391 203.8 149.58C206.565 148.492 209.363 147.704 212.129 147.143C200.489 154.297 193.135 164.917 190.505 169.155L233.604 154.307L192.54 171.907C196.184 172.823 202.693 174.123 210.348 174.123C214.132 174.123 218.197 173.805 222.333 172.967C220.036 174.377 217.58 175.659 214.953 176.723C214.944 176.725 214.933 176.731 214.925 176.733C214.916 176.737 214.907 176.741 214.897 176.744C214.881 176.751 214.867 176.757 214.851 176.763C214.849 176.764 214.847 176.765 214.844 176.765C214.749 176.804 214.653 176.843 214.557 176.88C214.499 176.903 214.441 176.925 214.384 176.948C214.364 176.956 214.344 176.964 214.324 176.972C207.507 179.615 200.504 180.481 194.261 180.481C194.259 180.481 194.257 180.481 194.256 180.481Z" fill="#D7CAB6"/>
<path d="M210.744 126.016C208.555 138.799 197.98 147.656 197.98 147.656C197.98 147.656 190.949 135.787 193.135 123.007C195.321 110.223 205.897 101.367 205.897 101.367C205.897 101.367 212.928 113.236 210.744 126.016Z" fill="#E2D9C8"/>
<path d="M193.135 123.007C193.177 122.751 193.225 122.495 193.276 122.241C193.225 122.496 193.177 122.751 193.135 123.007Z" fill="#172F29"/>
<path d="M197.98 147.656C197.98 147.656 192.717 138.771 192.713 128.097C192.712 126.435 192.84 124.729 193.135 123.007C193.177 122.751 193.225 122.496 193.276 122.241C193.577 120.733 193.996 119.283 194.493 117.9C194.547 126.217 197.755 133.399 199.132 136.103L204.999 108.979L201.205 135.912C203.637 133.508 208.535 128.044 211.157 120.733C211.169 122.457 211.048 124.227 210.744 126.016C208.555 138.799 197.98 147.656 197.98 147.656Z" fill="#D7CAB6"/>
<path d="M234.457 135.185C226.78 140.307 217.029 139.176 217.029 139.176C217.029 139.176 219.724 129.737 227.397 124.613C235.075 119.488 244.824 120.62 244.824 120.62C244.824 120.62 242.132 130.061 234.457 135.185Z" fill="#E2D9C8"/>
<path d="M219.535 139.283C222.905 139.272 229.083 138.712 234.328 135.271C229.081 138.712 222.905 139.272 219.535 139.283ZM234.48 135.169C234.764 134.979 235.041 134.783 235.311 134.583C235.041 134.784 234.764 134.98 234.48 135.169ZM227.397 124.613C227.843 124.315 228.296 124.039 228.753 123.783C228.296 124.039 227.843 124.316 227.397 124.613Z" fill="#F6F3ED"/>
<path d="M219.435 139.283C219.433 139.283 219.433 139.283 219.432 139.283C217.944 139.283 217.029 139.176 217.029 139.176C217.029 139.176 219.724 129.737 227.397 124.613C227.843 124.316 228.296 124.039 228.753 123.783C229.395 123.423 230.047 123.101 230.701 122.816C226.429 126.913 224.287 132.084 223.564 134.119L240.453 123.88L224.679 135.097C224.973 135.107 225.309 135.113 225.681 135.113C228.375 135.113 232.943 134.768 237.392 132.815C236.747 133.433 236.055 134.028 235.311 134.583C235.041 134.783 234.764 134.979 234.48 135.169C234.473 135.175 234.465 135.18 234.457 135.185C234.431 135.203 234.404 135.22 234.377 135.237C234.361 135.248 234.344 135.26 234.328 135.271C229.083 138.712 222.905 139.272 219.535 139.283C219.501 139.283 219.468 139.283 219.435 139.283Z" fill="#D7CAB6"/>
<path d="M37.1213 176.88C56.94 184.688 78.3853 177.369 78.3853 177.369C78.3853 177.369 67.696 157.391 47.8813 149.58C28.0613 141.772 6.61732 149.091 6.61732 149.091C6.61732 149.091 17.3053 169.071 37.1213 176.88Z" fill="#E2D9C8"/>
<path d="M57.4187 180.481C51.1747 180.481 44.1773 179.616 37.3587 176.972C44.176 179.616 51.176 180.481 57.4187 180.481Z" fill="#F6F3ED"/>
<path d="M37.0627 176.856C37.0507 176.852 37.0387 176.848 37.028 176.843C37.04 176.848 37.0507 176.852 37.0627 176.856ZM36.9373 176.807C36.9293 176.804 36.9213 176.801 36.9133 176.797C36.9213 176.8 36.9293 176.804 36.9373 176.807ZM36.8667 176.779C36.864 176.777 36.8613 176.776 36.8587 176.776C36.8627 176.777 36.8627 176.777 36.8667 176.779Z" fill="#F6F3ED"/>
<path d="M57.424 180.481C57.4227 180.481 57.42 180.481 57.4187 180.481C51.176 180.481 44.176 179.616 37.3586 176.972C37.336 176.964 37.3133 176.955 37.292 176.947C37.2346 176.924 37.1787 176.903 37.1213 176.88C37.1013 176.872 37.0826 176.864 37.0626 176.856C37.0506 176.852 37.04 176.848 37.028 176.843C37.0186 176.84 37.0093 176.836 37.0013 176.832C36.9907 176.828 36.98 176.824 36.9693 176.82C36.9587 176.816 36.948 176.811 36.9373 176.807C36.9293 176.804 36.9213 176.8 36.9133 176.797C36.8986 176.792 36.8827 176.785 36.8667 176.779C36.8627 176.777 36.8626 176.777 36.8586 176.776C34.1826 175.701 31.6826 174.401 29.3466 172.967C33.4826 173.805 37.548 174.123 41.332 174.123C48.9867 174.123 55.496 172.823 59.14 171.907L18.0747 154.307L61.1733 169.155C58.5453 164.917 51.1907 154.297 39.5507 147.143C42.3173 147.704 45.1133 148.492 47.8813 149.58C67.696 157.391 78.3853 177.369 78.3853 177.369C78.3853 177.369 78.384 177.369 78.384 177.371C78.26 177.412 69.1853 180.481 57.428 180.481C57.4266 180.481 57.4253 180.481 57.424 180.481Z" fill="#D7CAB6"/>
<path d="M40.936 126.016C43.1253 138.799 53.7 147.656 53.7 147.656C53.7 147.656 60.7307 135.787 58.5453 123.007C56.3587 110.223 45.7813 101.367 45.7813 101.367C45.7813 101.367 38.7507 113.236 40.936 126.016Z" fill="#E2D9C8"/>
<path d="M53.7 147.656C53.7 147.656 43.1253 138.799 40.936 126.016C40.632 124.227 40.5107 122.457 40.5213 120.733C43.144 128.044 48.0413 133.508 50.4733 135.912L46.6813 108.979L52.548 136.103C53.924 133.399 57.1333 126.217 57.1867 117.9C57.656 119.205 58.0547 120.569 58.352 121.987C58.4227 122.324 58.4867 122.664 58.5453 123.007C58.84 124.729 58.9667 126.435 58.9667 128.097C58.964 138.771 53.7 147.656 53.7 147.656Z" fill="#D7CAB6"/>
<path d="M17.2227 135.185C24.8987 140.307 34.6493 139.176 34.6493 139.176C34.6493 139.176 31.9546 129.737 24.2826 124.613C16.6053 119.488 6.85599 120.62 6.85599 120.62C6.85599 120.62 9.54799 130.061 17.2227 135.185Z" fill="#E2D9C8"/>
<path d="M17.2227 135.185C16.9173 134.981 16.62 134.772 16.332 134.555C16.6213 134.772 16.9173 134.981 17.2227 135.185ZM24.2827 124.613C23.868 124.336 23.4453 124.077 23.02 123.835C23.4467 124.077 23.868 124.336 24.2827 124.613Z" fill="#F6F3ED"/>
<path d="M32.244 139.283C32.212 139.283 32.1773 139.283 32.144 139.283C28.7707 139.272 22.5827 138.711 17.3333 135.259C17.3227 135.252 17.312 135.244 17.3027 135.237C17.2893 135.229 17.2773 135.221 17.264 135.212C17.2507 135.203 17.236 135.195 17.2227 135.185C16.9173 134.981 16.6213 134.772 16.332 134.555C15.6013 134.008 14.9227 133.423 14.2867 132.815C18.7373 134.768 23.3053 135.113 25.9987 135.113C26.3707 135.113 26.7067 135.107 27.0013 135.097L11.2267 123.88L28.116 134.119C27.392 132.084 25.2507 126.913 20.9787 122.816C21.6613 123.115 22.3413 123.451 23.0107 123.829L23.012 123.831C23.0147 123.832 23.0173 123.833 23.02 123.835C23.4453 124.077 23.868 124.336 24.2827 124.613C31.9547 129.737 34.6493 139.176 34.6493 139.176C34.6493 139.176 33.7347 139.283 32.2467 139.283C32.2453 139.283 32.2453 139.283 32.244 139.283Z" fill="#D7CAB6"/>
</svg>
